<svg id="Layer_1" data-name="Layer 1" xmlns="http://www.w3.org/2000/svg" viewBox="0 0 198.36 198.43"><defs><style>.cls-1{fill:#d7d7d7;}</style></defs><path class="cls-1" d="M69.3,99.47c-4.14,4-8,7.48-11.66,11.16Q32.27,135.92,7,161.29C.7,167.61-1.66,175.14,1.3,183.72c2.86,8.29,9,13.17,17.62,14.42,7.52,1.08,13.66-2,18.91-7.24q28.77-28.85,57.6-57.6c1.23-1.23,2.53-2.39,4.49-4.23a51.4,51.4,0,0,0,3.64,4.64q28.75,28.85,57.59,57.6c8,8,18.34,9.29,27.25,3.66,11.91-7.52,13.43-23.25,3-33.79-19.22-19.41-38.61-38.66-57.91-58-1.24-1.24-2.4-2.57-4.37-4.68,3.14-2.77,6.22-5.21,9-8q26.61-26.47,53.09-53.09c9.86-9.94,9.52-23.85-.56-32.39-8.81-7.46-20.72-6.68-29.6,2.15q-29.06,28.91-58,57.93c-1.22,1.22-2.53,2.37-4.07,3.8C87.46,57.36,76.3,46.09,65.11,34.85,55.76,25.46,46.43,16.06,37,6.77,30.78.66,23.34-1.62,15,1.2S1.67,10,.35,18.66c-1.15,7.52,1.79,13.7,7.06,19C27.79,58,48.13,78.31,69.3,99.47Z" transform="translate(-0.03 0)"/></svg>